# xmcd
#
# Track frame offsets:
#	150
#	14157
#	27697
#	45222
#	61345
#	73325
#	89020
#	105360
#	123522
#	135047
#
# Disc length: 1940 seconds
#
# Revision: 5
# Processed by: cddbd v1.5.2PL0 Copyright (c) Steve Scherf et al.
# Submitted via: EZCDAudioConverter 1.3.4.1
#
DISCID=8707920a
DTITLE=V/A - Back To The Beach
DYEAR=1900
DGENRE=
TTITLE0=Eddie Money - Catch A Ride
TTITLE1=Stevie Ray Vaughan and Dick Dale - Pipeline
TTITLE2=Aimee Mann - Sign Of Love
TTITLE3=Private Domain - Absolute Perfection
TTITLE4=Pee-Wee Herman - Surfin' Bird
TTITLE5=Marti Jones - Sun, Sun, Sun, Sun, Sun
TTITLE6=Annette Funicello and Fishbone - Jamaica Ska
TTITLE7=Herbie Hancock - Wipe Out
TTITLE8=Frankie Avalon - California Sun
TTITLE9=Dave Edmunds - Wooly Bully
EXTD=
EXTT0=
EXTT1=
EXTT2=
EXTT3=
EXTT4=
EXTT5=
EXTT6=
EXTT7=
EXTT8=
EXTT9=
PLAYORDER=
